<svg width="228" height="108" viewBox="0 0 228 108" fill="none" xmlns="http://www.w3.org/2000/svg">
<line x1="228" y1="102.5" x2="-0.00012207" y2="102.5" stroke="#AAAAAA"/>
<circle cx="204" cy="102" r="6" fill="#5D83FF"/>
<circle cx="20.9999" cy="102" r="6" fill="#5D83FF"/>
<g opacity="0.4">
<mask id="path-4-inside-1_55_19" fill="white">
<path fill-rule="evenodd" clip-rule="evenodd" d="M203 91H204C204 40.7421 163.258 0 113 0C62.742 0 21.9999 40.7421 21.9999 91H22.9999C22.9999 41.2944 63.2943 1 113 1C162.706 1 203 41.2944 203 91Z"/>
</mask>
<path d="M203 91H202.5V91.5H203V91ZM204 91V91.5H204.5V91H204ZM21.9999 91H21.4999V91.5H21.9999V91ZM22.9999 91V91.5H23.4999V91H22.9999ZM203.5 91C203.5 90.5036 203.496 90.008 203.488 89.5135L202.488 89.5296C202.496 90.0188 202.5 90.5089 202.5 91H203.5ZM203.393 86.5579C203.345 85.567 203.281 84.5802 203.201 83.5979L202.205 83.6786C202.283 84.6502 202.347 85.6261 202.394 86.6062L203.393 86.5579ZM202.915 80.6518C202.803 79.6685 202.675 78.69 202.532 77.7165L201.542 77.8621C201.684 78.8248 201.81 79.7925 201.921 80.7649L202.915 80.6518ZM202.052 74.7912C201.876 73.8177 201.685 72.8497 201.478 71.8874L200.5 72.0976C200.705 73.0492 200.894 74.0065 201.068 74.9691L202.052 74.7912ZM200.808 69.0028C200.568 68.0423 200.313 67.0879 200.042 66.1398L199.081 66.414C199.348 67.3515 199.6 68.2953 199.838 69.2451L200.808 69.0028ZM199.184 63.3066C198.882 62.3649 198.564 61.43 198.232 60.502L197.291 60.839C197.619 61.7566 197.933 62.6811 198.232 63.6123L199.184 63.3066ZM197.188 57.7291C196.825 56.8099 196.446 55.8982 196.054 54.9941L195.137 55.3923C195.525 56.2864 195.899 57.188 196.258 58.0969L197.188 57.7291ZM194.83 52.2972C194.407 51.4037 193.969 50.5182 193.518 49.641L192.628 50.0987C193.075 50.9661 193.508 51.8418 193.926 52.7254L194.83 52.2972ZM192.119 47.0307C191.639 46.1675 191.144 45.3129 190.636 44.4674L189.779 44.9823C190.281 45.8185 190.77 46.6636 191.246 47.5173L192.119 47.0307ZM189.07 41.9531C188.534 41.1234 187.984 40.3031 187.422 39.4923L186.6 40.0621C187.156 40.8639 187.7 41.6753 188.23 42.4958L189.07 41.9531ZM185.695 37.0866C185.106 36.2936 184.504 35.5106 183.89 34.7378L183.107 35.36C183.715 36.1243 184.31 36.8987 184.892 37.6829L185.695 37.0866ZM182.01 32.4496C181.371 31.697 180.72 30.9549 180.057 30.2238L179.316 30.8956C179.972 31.6187 180.616 32.3526 181.248 33.0969L182.01 32.4496ZM178.032 28.0624C177.345 27.3531 176.647 26.6549 175.937 25.9683L175.242 26.6868C175.944 27.3659 176.634 28.0564 177.313 28.758L178.032 28.0624ZM173.776 23.9432C173.045 23.2801 172.303 22.6288 171.55 21.9896L170.903 22.7519C171.647 23.384 172.381 24.0281 173.104 24.6839L173.776 23.9432ZM169.262 20.1096C168.489 19.4955 167.706 18.8937 166.913 18.3047L166.317 19.1074C167.101 19.69 167.876 20.2851 168.64 20.8925L169.262 20.1096ZM164.508 16.5777C163.697 16.0156 162.876 15.4663 162.047 14.9302L161.504 15.7702C162.325 16.3003 163.136 16.8435 163.938 17.3995L164.508 16.5777ZM159.533 13.3635C158.687 12.8556 157.832 12.3612 156.969 11.8804L156.483 12.7541C157.336 13.2295 158.181 13.7185 159.018 14.2208L159.533 13.3635ZM154.359 10.4823C153.482 10.0308 152.596 9.59325 151.703 9.16989L151.275 10.0736C152.158 10.4922 153.034 10.925 153.901 11.3714L154.359 10.4823ZM149.006 7.94601C148.102 7.55353 147.19 7.17537 146.271 6.81183L145.903 7.74174C146.812 8.10123 147.714 8.47519 148.608 8.86331L149.006 7.94601ZM143.498 5.76761C142.57 5.43554 141.635 5.11818 140.693 4.81583L140.388 5.76796C141.319 6.06694 142.243 6.38076 143.161 6.70914L143.498 5.76761ZM137.86 3.95741C136.912 3.68714 135.958 3.43195 134.997 3.1921L134.755 4.1623C135.705 4.39949 136.648 4.65184 137.586 4.9191L137.86 3.95741ZM132.113 2.52206C131.15 2.31516 130.182 2.12357 129.209 1.94755L129.031 2.93159C129.993 3.10566 130.951 3.29512 131.902 3.49972L132.113 2.52206ZM126.283 1.46805C125.31 1.32485 124.331 1.19716 123.348 1.08522L123.235 2.07881C124.207 2.18951 125.175 2.31579 126.138 2.4574L126.283 1.46805ZM120.402 0.798389C119.42 0.718862 118.433 0.655023 117.442 0.607124L117.394 1.60596C118.374 1.65333 119.35 1.71647 120.321 1.79513L120.402 0.798389ZM114.486 0.511964C113.992 0.503998 113.496 0.5 113 0.5V1.5C113.491 1.5 113.981 1.50395 114.47 1.51183L114.486 0.511964ZM113 0.5C112.503 0.5 112.008 0.503998 111.513 0.511963L111.529 1.51183C112.019 1.50395 112.509 1.5 113 1.5V0.5ZM108.558 0.607121C107.567 0.65502 106.58 0.718858 105.598 0.798384L105.678 1.79512C106.65 1.71647 107.626 1.65333 108.606 1.60596L108.558 0.607121ZM102.652 1.08522C101.668 1.19715 100.69 1.32485 99.7164 1.46804L99.862 2.45739C100.825 2.31578 101.792 2.1895 102.765 2.0788L102.652 1.08522ZM96.791 1.94754C95.8176 2.12356 94.8496 2.31515 93.8873 2.52205L94.0975 3.49971C95.0491 3.29511 96.0064 3.10565 96.969 2.93158L96.791 1.94754ZM91.0027 3.19209C90.0422 3.43193 89.0878 3.68713 88.1397 3.9574L88.4139 4.91909C89.3514 4.65183 90.2952 4.39947 91.245 4.16229L91.0027 3.19209ZM85.3065 4.81582C84.3648 5.11817 83.4299 5.43552 82.5019 5.7676L82.8388 6.70913C83.7565 6.38075 84.681 6.06693 85.6122 5.76795L85.3065 4.81582ZM79.729 6.81182C78.8098 7.17536 77.8981 7.55352 76.994 7.946L77.3922 8.86329C78.2862 8.47517 79.1879 8.10122 80.0968 7.74173L79.729 6.81182ZM74.2971 9.16988C73.4035 9.59323 72.5181 10.0308 71.6409 10.4823L72.0985 11.3714C72.966 10.9249 73.8416 10.4922 74.7253 10.0736L74.2971 9.16988ZM69.0306 11.8804C68.1674 12.3611 67.3128 12.8556 66.4673 13.3635L66.9822 14.2207C67.8184 13.7185 68.6635 13.2295 69.5171 12.7541L69.0306 11.8804ZM63.953 14.9302C63.1233 15.4663 62.3029 16.0155 61.4922 16.5777L62.062 17.3995C62.8638 16.8435 63.6751 16.3003 64.4957 15.7702L63.953 14.9302ZM59.0865 18.3046C58.2935 18.8937 57.5105 19.4954 56.7377 20.1095L57.3599 20.8924C58.1241 20.2851 58.8985 19.69 59.6828 19.1074L59.0865 18.3046ZM54.4495 21.9896C53.6968 22.6288 52.9548 23.2801 52.2237 23.9431L52.8954 24.6839C53.6185 24.0281 54.3524 23.384 55.0968 22.7518L54.4495 21.9896ZM50.0623 25.9683C49.353 26.6549 48.6548 27.3531 47.9682 28.0624L48.6867 28.7579C49.3658 28.0564 50.0563 27.3659 50.7578 26.6868L50.0623 25.9683ZM45.943 30.2238C45.28 30.9549 44.6287 31.6969 43.9895 32.4496L44.7517 33.0969C45.3839 32.3525 46.028 31.6186 46.6838 30.8955L45.943 30.2238ZM42.1094 34.7378C41.4953 35.5106 40.8936 36.2936 40.3045 37.0866L41.1073 37.6829C41.6899 36.8986 42.285 36.1242 42.8923 35.36L42.1094 34.7378ZM38.5776 39.4923C38.0154 40.303 37.4662 41.1234 36.9301 41.9531L37.7701 42.4958C38.3002 41.6752 38.8434 40.8639 39.3994 40.0621L38.5776 39.4923ZM35.3634 44.4674C34.8555 45.3129 34.361 46.1674 33.8803 47.0307L34.754 47.5172C35.2294 46.6636 35.7184 45.8185 36.2206 44.9823L35.3634 44.4674ZM32.4822 49.641C32.0307 50.5181 31.5931 51.4036 31.1698 52.2972L32.0735 52.7253C32.4921 51.8417 32.9248 50.9661 33.3713 50.0986L32.4822 49.641ZM29.9459 54.9941C29.5534 55.8982 29.1753 56.8099 28.8117 57.7291L29.7416 58.0969C30.1011 57.1879 30.4751 56.2863 30.8632 55.3923L29.9459 54.9941ZM27.7675 60.502C27.4354 61.4299 27.1181 62.3649 26.8157 63.3066L27.7678 63.6123C28.0668 62.6811 28.3806 61.7565 28.709 60.8389L27.7675 60.502ZM25.9573 66.1398C25.687 67.0879 25.4318 68.0423 25.192 69.0028L26.1622 69.2451C26.3994 68.2953 26.6517 67.3515 26.919 66.4139L25.9573 66.1398ZM24.5219 71.8873C24.315 72.8497 24.1234 73.8177 23.9474 74.7911L24.9315 74.9691C25.1055 74.0064 25.295 73.0492 25.4996 72.0975L24.5219 71.8873ZM23.4679 77.7165C23.3247 78.69 23.197 79.6685 23.0851 80.6517L24.0787 80.7648C24.1894 79.7924 24.3157 78.8247 24.4573 77.862L23.4679 77.7165ZM22.7983 83.5978C22.7187 84.5802 22.6549 85.5669 22.607 86.5579L23.6058 86.6062C23.6532 85.6261 23.7164 84.6501 23.795 83.6785L22.7983 83.5978ZM22.5118 89.5134C22.5039 90.008 22.4999 90.5035 22.4999 91H23.4999C23.4999 90.5089 23.5038 90.0187 23.5117 89.5295L22.5118 89.5134ZM22.9999 90.5H22.7499V91.5H22.9999V90.5ZM22.2499 90.5H21.9999V91.5H22.2499V90.5ZM22.4999 91C22.4999 90.5034 22.5039 90.0078 22.5118 89.5132L21.512 89.4971C21.5039 89.9971 21.4999 90.4981 21.4999 91H22.4999ZM22.607 86.5571C22.6549 85.5661 22.7188 84.5792 22.7983 83.5968L21.8016 83.5161C21.7212 84.5093 21.6566 85.507 21.6082 86.5088L22.607 86.5571ZM23.0851 80.6505C23.1971 79.6673 23.3248 78.6887 23.468 77.7153L22.4786 77.5698C22.3338 78.554 22.2047 79.5433 22.0916 80.5374L23.0851 80.6505ZM23.9474 74.79C24.1235 73.8166 24.315 72.8487 24.5219 71.8864L23.5443 71.6762C23.3351 72.6492 23.1414 73.6279 22.9634 74.6121L23.9474 74.79ZM25.1919 69.002C25.4317 68.0416 25.6869 67.0873 25.9572 66.1393L24.9955 65.8651C24.7222 66.8237 24.4642 67.7887 24.2217 68.7598L25.1919 69.002ZM26.8155 63.3063C27.1178 62.3647 27.4352 61.4298 27.7672 60.502L26.8257 60.165C26.4899 61.1032 26.1691 62.0485 25.8634 63.0006L26.8155 63.3063ZM28.8113 57.7293C29.1749 56.8102 29.553 55.8985 29.9454 54.9944L29.0282 54.5962C28.6313 55.5103 28.249 56.4322 27.8814 57.3615L28.8113 57.7293ZM31.1693 52.2977C31.5926 51.4042 32.0301 50.5188 32.4816 49.6416L31.5924 49.184C31.136 50.0709 30.6936 50.9661 30.2656 51.8695L31.1693 52.2977ZM33.8797 47.0314C34.3604 46.1682 34.8549 45.3137 35.3628 44.4681L34.5055 43.9532C33.992 44.8081 33.4921 45.6721 33.006 46.5448L33.8797 47.0314ZM36.9295 41.9539C37.4656 41.1241 38.0148 40.3037 38.577 39.493L37.7553 38.9232C37.1869 39.7429 36.6315 40.5723 36.0895 41.4112L36.9295 41.9539ZM40.304 37.0872C40.8931 36.2941 41.4949 35.5111 42.109 34.7383L41.3261 34.1161C40.7052 34.8974 40.0968 35.6891 39.5013 36.4908L40.304 37.0872ZM43.9892 32.4499C44.6284 31.6973 45.2797 30.9552 45.9428 30.224L45.2021 29.5522C44.5317 30.2914 43.8732 31.0417 43.227 31.8026L43.9892 32.4499ZM47.9681 28.0625C48.6548 27.3531 49.353 26.6549 50.0624 25.9682L49.3669 25.2497C48.6497 25.9439 47.9438 26.6498 47.2496 27.367L47.9681 28.0625ZM52.2239 23.9429C52.9551 23.2798 53.6972 22.6285 54.4498 21.9893L53.8025 21.2271C53.0416 21.8733 52.2913 22.5318 51.5521 23.2022L52.2239 23.9429ZM56.7382 20.1091C57.511 19.495 58.2941 18.8932 59.0871 18.3041L58.4908 17.5014C57.689 18.0969 56.8973 18.7053 56.1161 19.3262L56.7382 20.1091ZM61.4929 16.5771C62.3037 16.0149 63.124 15.4657 63.9538 14.9296L63.4111 14.0896C62.5722 14.6316 61.7428 15.187 60.9231 15.7554L61.4929 16.5771ZM66.468 13.3629C67.3136 12.855 68.1681 12.3605 69.0313 11.8798L68.5448 11.0061C67.672 11.4922 66.808 11.9921 65.9531 12.5056L66.468 13.3629ZM71.6416 10.4817C72.5187 10.0302 73.4041 9.59269 74.2976 9.16936L73.8695 8.26566C72.9661 8.69369 72.0708 9.13608 71.1839 9.59254L71.6416 10.4817ZM76.9944 7.94555C77.8984 7.55309 78.8101 7.17496 79.7292 6.81145L79.3614 5.88154C78.4321 6.2491 77.5102 6.63143 76.5962 7.02825L76.9944 7.94555ZM82.5019 5.76731C83.4298 5.43527 84.3646 5.11794 85.3062 4.81562L85.0005 3.86349C84.0484 4.16918 83.1032 4.49004 82.165 4.82579L82.5019 5.76731ZM88.1392 3.95727C89.0872 3.68703 90.0416 3.43186 91.002 3.19202L90.7597 2.22182C89.7886 2.46432 88.8236 2.72233 87.8651 2.99559L88.1392 3.95727ZM93.8863 2.52204C94.8486 2.31516 95.8166 2.12358 96.7899 1.94756L96.612 0.96352C95.6278 1.14149 94.6491 1.3352 93.6762 1.54438L93.8863 2.52204ZM99.7152 1.46808C100.689 1.32489 101.667 1.1972 102.65 1.08526L102.537 0.0916776C101.543 0.204848 100.554 0.333952 99.5697 0.478728L99.7152 1.46808ZM105.597 0.798416C106.579 0.718884 107.566 0.65504 108.557 0.607136L108.509 -0.391698C107.507 -0.34327 106.509 -0.278728 105.516 -0.198323L105.597 0.798416ZM111.513 0.511965C112.008 0.503998 112.503 0.5 113 0.5V-0.5C112.498 -0.5 111.997 -0.495958 111.497 -0.487906L111.513 0.511965ZM113 0.5C113.496 0.5 113.992 0.503999 114.487 0.511966L114.503 -0.487905C114.003 -0.495958 113.502 -0.5 113 -0.5V0.5ZM117.443 0.607139C118.434 0.655044 119.421 0.718888 120.403 0.798421L120.484 -0.198318C119.491 -0.278724 118.493 -0.343267 117.491 -0.391695L117.443 0.607139ZM123.349 1.08527C124.333 1.1972 125.311 1.3249 126.285 1.46809L126.43 0.478735C125.446 0.33396 124.457 0.204856 123.462 0.0916843L123.349 1.08527ZM129.21 1.94757C130.183 2.12359 131.151 2.31517 132.113 2.52205L132.324 1.54439C131.351 1.33521 130.372 1.1415 129.388 0.963531L129.21 1.94757ZM134.998 3.19204C135.958 3.43187 136.913 3.68704 137.861 3.95729L138.135 2.9956C137.176 2.72235 136.211 2.46433 135.24 2.22183L134.998 3.19204ZM140.694 4.81563C141.635 5.11795 142.57 5.43528 143.498 5.76733L143.835 4.8258C142.897 4.49006 141.951 4.1692 140.999 3.86351L140.694 4.81563ZM146.271 6.81147C147.19 7.17498 148.101 7.55311 149.005 7.94557L149.404 7.02827C148.49 6.63145 147.568 6.24912 146.638 5.88156L146.271 6.81147ZM151.702 9.16938C152.596 9.59271 153.481 10.0302 154.358 10.4817L154.816 9.59256C153.929 9.1361 153.034 8.69371 152.13 8.26568L151.702 9.16938ZM156.968 11.8798C157.832 12.3605 158.686 12.855 159.532 13.3629L160.047 12.5056C159.192 11.9921 158.328 11.4922 157.455 11.0062L156.968 11.8798ZM162.046 14.9296C162.876 15.4657 163.696 16.015 164.507 16.5771L165.077 15.7554C164.257 15.187 163.428 14.6317 162.589 14.0897L162.046 14.9296ZM166.913 18.3041C167.706 18.8932 168.489 19.495 169.262 20.1091L169.884 19.3262C169.102 18.7054 168.311 18.097 167.509 17.5014L166.913 18.3041ZM171.55 21.9893C172.303 22.6285 173.045 23.2798 173.776 23.943L174.448 23.2022C173.708 22.5318 172.958 21.8733 172.197 21.2271L171.55 21.9893ZM175.937 25.9682C176.647 26.6549 177.345 27.3531 178.032 28.0625L178.75 27.367C178.056 26.6498 177.35 25.9439 176.633 25.2497L175.937 25.9682ZM180.057 30.224C180.72 30.9552 181.371 31.6973 182.011 32.45L182.773 31.8026C182.127 31.0417 181.468 30.2915 180.798 29.5522L180.057 30.224ZM183.891 34.7383C184.505 35.5111 185.107 36.2942 185.696 37.0872L186.499 36.4909C185.903 35.6891 185.295 34.8975 184.674 34.1162L183.891 34.7383ZM187.423 39.493C187.985 40.3038 188.534 41.1242 189.07 41.9539L189.91 41.4112C189.368 40.5723 188.813 39.7429 188.245 38.9232L187.423 39.493ZM190.637 44.4681C191.145 45.3137 191.639 46.1682 192.12 47.0314L192.994 46.5449C192.508 45.6721 192.008 44.8081 191.494 43.9532L190.637 44.4681ZM193.518 49.6417C193.97 50.5188 194.407 51.4043 194.831 52.2978L195.734 51.8696C195.306 50.9662 194.864 50.0709 194.407 49.1841L193.518 49.6417ZM196.054 54.9945C196.447 55.8985 196.825 56.8102 197.188 57.7293L198.118 57.3615C197.751 56.4322 197.368 55.5104 196.972 54.5963L196.054 54.9945ZM198.233 60.502C198.565 61.4299 198.882 62.3648 199.184 63.3064L200.136 63.0006C199.831 62.0486 199.51 61.1033 199.174 60.1651L198.233 60.502ZM200.043 66.1393C200.313 67.0873 200.568 68.0417 200.808 69.0021L201.778 68.7598C201.536 67.7887 201.278 66.8237 201.004 65.8652L200.043 66.1393ZM201.478 71.8865C201.685 72.8487 201.876 73.8167 202.052 74.7901L203.036 74.6121C202.858 73.6279 202.665 72.6492 202.456 71.6763L201.478 71.8865ZM202.532 77.7153C202.675 78.6888 202.803 79.6673 202.915 80.6506L203.908 80.5375C203.795 79.5434 203.666 78.554 203.521 77.5698L202.532 77.7153ZM203.201 83.5969C203.281 84.5793 203.345 85.5661 203.393 86.5572L204.392 86.5089C204.343 85.507 204.279 84.5094 204.198 83.5162L203.201 83.5969ZM203.488 89.5132C203.496 90.0079 203.5 90.5035 203.5 91H204.5C204.5 90.4981 204.496 89.9971 204.488 89.4971L203.488 89.5132ZM204 90.5H203.75V91.5H204V90.5ZM203.25 90.5H203V91.5H203.25V90.5ZM203 91H202V92H203V91ZM204 91V92H205V91H204ZM21.9999 91H20.9999V92H21.9999V91ZM22.9999 91V92H23.9999V91H22.9999ZM204 91C204 90.5009 203.996 90.0027 203.988 89.5054L201.988 89.5376C201.996 90.0241 202 90.5116 202 91H204ZM203.892 86.5338C203.844 85.5375 203.78 84.5453 203.7 83.5576L201.706 83.7189C201.785 84.6851 201.847 85.6557 201.895 86.6304L203.892 86.5338ZM203.411 80.5952C203.299 79.6065 203.171 78.6226 203.027 77.6438L201.048 77.9348C201.189 78.8922 201.314 79.8544 201.424 80.8215L203.411 80.5952ZM202.544 74.7022C202.367 73.7234 202.175 72.75 201.967 71.7823L200.011 72.2027C200.215 73.149 200.403 74.1009 200.576 75.0581L202.544 74.7022ZM201.293 68.8817C201.052 67.9159 200.795 66.9561 200.523 66.0028L198.6 66.5511C198.866 67.4833 199.117 68.4218 199.352 69.3662L201.293 68.8817ZM199.66 63.1538C199.356 62.2068 199.037 61.2667 198.703 60.3336L196.82 61.0074C197.147 61.9199 197.459 62.8392 197.756 63.7652L199.66 63.1538ZM197.653 57.5452C197.287 56.6209 196.907 55.7041 196.513 54.795L194.678 55.5914C195.064 56.4804 195.436 57.377 195.793 58.2808L197.653 57.5452ZM195.282 52.0831C194.856 51.1846 194.416 50.2942 193.962 49.4122L192.184 50.3275C192.628 51.19 193.058 52.0608 193.474 52.9395L195.282 52.0831ZM192.556 46.7874C192.073 45.9194 191.576 45.0602 191.065 44.2099L189.351 45.2397C189.85 46.0713 190.336 46.9116 190.809 47.7605L192.556 46.7874ZM189.49 41.6818C188.951 40.8475 188.398 40.0226 187.833 39.2074L186.19 40.347C186.742 41.1444 187.283 41.9512 187.81 42.7672L189.49 41.6818ZM186.097 36.7884C185.504 35.9911 184.899 35.2038 184.282 34.4268L182.716 35.6711C183.32 36.4311 183.912 37.2012 184.491 37.9811L186.097 36.7884ZM182.391 32.1259C181.749 31.3692 181.094 30.6231 180.427 29.8879L178.946 31.2314C179.598 31.9505 180.238 32.6804 180.867 33.4206L182.391 32.1259ZM178.391 27.7147C177.7 27.0014 176.998 26.2994 176.285 25.609L174.894 27.046C175.592 27.7214 176.279 28.408 176.954 29.1057L178.391 27.7147ZM174.112 23.5728C173.377 22.9061 172.631 22.2512 171.874 21.6085L170.579 23.133C171.32 23.7616 172.049 24.4022 172.768 25.0543L174.112 23.5728ZM169.573 19.7181C168.796 19.1006 168.009 18.4956 167.211 17.9033L166.019 19.5088C166.799 20.0881 167.569 20.6799 168.329 21.2839L169.573 19.7181ZM164.793 16.1668C163.977 15.6016 163.152 15.0493 162.318 14.5103L161.233 16.1901C162.049 16.7173 162.856 17.2575 163.653 17.8104L164.793 16.1668ZM159.79 12.9349C158.94 12.4242 158.08 11.927 157.212 11.4436L156.239 13.1909C157.088 13.6637 157.929 14.1499 158.76 14.6494L159.79 12.9349ZM154.588 10.0377C153.706 9.58373 152.815 9.14375 151.917 8.71805L151.06 10.5254C151.939 10.9417 152.81 11.372 153.672 11.816L154.588 10.0377ZM149.205 7.48737C148.296 7.0927 147.379 6.71244 146.455 6.34688L145.719 8.20669C146.623 8.56416 147.519 8.93601 148.409 9.32195L149.205 7.48737ZM143.666 5.29685C142.733 4.96292 141.793 4.6438 140.846 4.33977L140.235 6.24402C141.161 6.54132 142.08 6.85337 142.992 7.1799L143.666 5.29685ZM137.997 3.47657C137.044 3.2048 136.084 2.94818 135.118 2.70699L134.634 4.64741C135.578 4.88325 136.517 5.13419 137.449 5.39994L137.997 3.47657ZM132.218 2.03323C131.25 1.82518 130.277 1.63253 129.298 1.45553L128.942 3.42361C129.899 3.5967 130.851 3.7851 131.797 3.98855L132.218 2.03323ZM126.356 0.97337C125.377 0.829384 124.393 0.700985 123.405 0.588432L123.178 2.5756C124.145 2.68568 125.108 2.81126 126.065 2.95208L126.356 0.97337ZM120.442 0.30002C119.455 0.220056 118.462 0.155868 117.466 0.107707L117.37 2.10537C118.344 2.15249 119.315 2.21528 120.281 2.2935L120.442 0.30002ZM114.495 0.0120288C113.997 0.00401972 113.499 0 113 0V2C113.488 2 113.976 2.00393 114.462 2.01177L114.495 0.0120288ZM113 0C112.501 0 112.003 0.00401937 111.505 0.0120278L111.538 2.01177C112.024 2.00393 112.511 2 113 2V0ZM108.534 0.107705C107.537 0.155865 106.545 0.220052 105.557 0.300015L105.719 2.29349C106.685 2.21528 107.656 2.15249 108.63 2.10537L108.534 0.107705ZM102.595 0.588426C101.606 0.700978 100.623 0.829376 99.6437 0.973362L99.9347 2.95207C100.892 2.81125 101.854 2.68567 102.821 2.57559L102.595 0.588426ZM96.7021 1.45552C95.7233 1.63252 94.7499 1.82517 93.7822 2.03322L94.2026 3.98854C95.1489 3.78509 96.1007 3.59669 97.058 3.4236L96.7021 1.45552ZM90.8816 2.70698C89.9157 2.94817 88.956 3.20478 88.0026 3.47656L88.5509 5.39993C89.4832 5.13418 90.4217 4.88324 91.3661 4.6474L90.8816 2.70698ZM85.1536 4.33976C84.2067 4.64379 83.2665 4.96291 82.3334 5.29683L83.0073 7.17989C83.9198 6.85336 84.8391 6.54131 85.765 6.24401L85.1536 4.33976ZM79.5451 6.34687C78.6208 6.71243 77.704 7.09269 76.7949 7.48735L77.5913 9.32194C78.4803 8.936 79.3769 8.56415 80.2807 8.20668L79.5451 6.34687ZM74.083 8.71803C73.1845 9.14373 72.2941 9.58372 71.4121 10.0377L72.3274 11.816C73.1899 11.372 74.0607 10.9417 74.9393 10.5254L74.083 8.71803ZM68.7873 11.4436C67.9193 11.927 67.06 12.4242 66.2098 12.9349L67.2396 14.6494C68.0712 14.1499 68.9115 13.6636 69.7604 13.1909L68.7873 11.4436ZM63.6817 14.5102C62.8474 15.0493 62.0225 15.6016 61.2073 16.1668L62.3469 17.8104C63.1443 17.2575 63.9511 16.7173 64.767 16.1901L63.6817 14.5102ZM58.7883 17.9033C57.991 18.4956 57.2036 19.1006 56.4266 19.7181L57.671 21.2839C58.431 20.6799 59.2011 20.0881 59.9809 19.5088L58.7883 17.9033ZM54.1258 21.6085C53.369 22.2512 52.6229 22.9061 51.8878 23.5728L53.2313 25.0543C53.9504 24.4021 54.6802 23.7616 55.4205 23.1329L54.1258 21.6085ZM49.7146 25.609C49.0013 26.2994 48.2993 27.0014 47.6089 27.7147L49.0459 29.1057C49.7213 28.408 50.4079 27.7214 51.1056 27.046L49.7146 25.609ZM45.5727 29.8879C44.906 30.623 44.2511 31.3691 43.6084 32.1259L45.1328 33.4206C45.7615 32.6803 46.402 31.9505 47.0542 31.2314L45.5727 29.8879ZM41.718 34.4267C41.1005 35.2037 40.4955 35.991 39.9032 36.7884L41.5087 37.981C42.088 37.2011 42.6798 36.4311 43.2838 35.6711L41.718 34.4267ZM38.1667 39.2074C37.6015 40.0226 37.0492 40.8475 36.5101 41.6818L38.19 42.7671C38.7172 41.9512 39.2574 41.1443 39.8103 40.347L38.1667 39.2074ZM34.9348 44.2099C34.4241 45.0601 33.9269 45.9194 33.4435 46.7874L35.1908 47.7605C35.6635 46.9116 36.1498 46.0712 36.6493 45.2397L34.9348 44.2099ZM32.0376 49.4122C31.5836 50.2942 31.1436 51.1846 30.7179 52.0831L32.5253 52.9394C32.9416 52.0608 33.3719 51.19 33.8159 50.3274L32.0376 49.4122ZM29.4872 54.7949C29.0926 55.7041 28.7123 56.6209 28.3468 57.5452L30.2066 58.2808C30.564 57.377 30.9359 56.4804 31.3218 55.5914L29.4872 54.7949ZM27.2967 60.3335C26.9628 61.2666 26.6437 62.2068 26.3396 63.1537L28.2439 63.7651C28.5412 62.8392 28.8533 61.9198 29.1798 61.0074L27.2967 60.3335ZM25.4764 66.0027C25.2047 66.9561 24.9481 67.9158 24.7069 68.8816L26.6473 69.3662C26.8831 68.4217 27.1341 67.4833 27.3998 66.551L25.4764 66.0027ZM24.0331 71.7823C23.8251 72.7499 23.6324 73.7233 23.4554 74.7021L25.4235 75.058C25.5966 74.1008 25.785 73.1489 25.9884 72.2026L24.0331 71.7823ZM22.9732 77.6437C22.8293 78.6226 22.7009 79.6065 22.5883 80.5952L24.5755 80.8214C24.6856 79.8544 24.8111 78.8921 24.952 77.9348L22.9732 77.6437ZM22.2999 83.5575C22.2199 84.5452 22.1557 85.5374 22.1076 86.5337L24.1053 86.6303C24.1524 85.6556 24.2152 84.6851 24.2934 83.7189L22.2999 83.5575ZM22.0119 89.5054C22.0039 90.0026 21.9999 90.5009 21.9999 91H23.9999C23.9999 90.5116 24.0038 90.0241 24.0116 89.5376L22.0119 89.5054ZM22.9999 90H22.7499V92H22.9999V90ZM22.2499 90H21.9999V92H22.2499V90ZM22.9999 91C22.9999 90.5061 23.0039 90.0132 23.0118 89.5212L21.012 89.489C21.0039 89.9917 20.9999 90.4954 20.9999 91H22.9999ZM23.1064 86.5813C23.1541 85.5956 23.2176 84.6142 23.2967 83.6372L21.3032 83.4758C21.2223 84.4744 21.1575 85.4774 21.1088 86.4847L23.1064 86.5813ZM23.5819 80.7071C23.6933 79.7292 23.8202 78.7561 23.9626 77.7881L21.9839 77.497C21.8384 78.4866 21.7086 79.4813 21.5948 80.4809L23.5819 80.7071ZM24.4395 74.879C24.6145 73.911 24.805 72.9484 25.0108 71.9915L23.0554 71.5711C22.8451 72.5494 22.6503 73.5335 22.4714 74.5231L24.4395 74.879ZM25.677 69.1232C25.9155 68.1681 26.1693 67.2191 26.438 66.2764L24.5146 65.7281C24.2399 66.6919 23.9804 67.6622 23.7366 68.6386L25.677 69.1232ZM27.2916 63.4592C27.5922 62.5228 27.9078 61.5931 28.238 60.6704L26.3549 59.9966C26.0173 60.9399 25.6947 61.8904 25.3873 62.8478L27.2916 63.4592ZM29.2763 57.9132C29.6378 56.9992 30.0138 56.0926 30.4041 55.1936L28.5695 54.3971C28.1705 55.3162 27.7861 56.2431 27.4165 57.1776L29.2763 57.9132ZM31.6211 52.5118C32.0421 51.6233 32.4772 50.7427 32.9261 49.8705L31.1479 48.9552C30.6889 49.8469 30.2441 50.7471 29.8137 51.6555L31.6211 52.5118ZM34.3165 47.2747C34.7946 46.4162 35.2863 45.5664 35.7914 44.7256L34.0769 43.6958C33.5606 44.5553 33.0579 45.424 32.5692 46.3016L34.3165 47.2747ZM37.3495 42.2252C37.8826 41.4001 38.4288 40.5842 38.9879 39.7779L37.3444 38.6382C36.7729 39.4624 36.2145 40.2964 35.6696 41.1398L37.3495 42.2252ZM40.7054 37.3853C41.2912 36.5967 41.8897 35.8179 42.5004 35.0494L40.9347 33.8051C40.3104 34.5906 39.6987 35.3866 39.0999 36.1927L40.7054 37.3853ZM44.3703 32.7736C45.006 32.025 45.6537 31.287 46.3132 30.5599L44.8317 29.2163C44.1577 29.9595 43.4956 30.7139 42.8459 31.4789L44.3703 32.7736ZM48.3273 28.4102C49.0103 27.7047 49.7046 27.0104 50.4102 26.3274L49.0191 24.8904C48.298 25.5884 47.5883 26.2981 46.8903 27.0192L48.3273 28.4102ZM52.5598 24.3133C53.2869 23.6538 54.025 23.0061 54.7735 22.3704L53.4789 20.846C52.7138 21.4957 51.9595 22.1578 51.2162 22.8318L52.5598 24.3133ZM57.0493 20.5005C57.8178 19.8898 58.5966 19.2913 59.3852 18.7055L58.1926 17.1C57.3865 17.6988 56.5905 18.3105 55.805 18.9348L57.0493 20.5005ZM61.7778 16.988C62.5841 16.4289 63.4 15.8827 64.2251 15.3496L63.1398 13.6697C62.2963 14.2146 61.4623 14.773 60.6382 15.3445L61.7778 16.988ZM66.7255 13.7915C67.5664 13.2864 68.4162 12.7947 69.2746 12.3166L68.3015 10.5693C67.4239 11.058 66.5552 11.5607 65.6957 12.077L66.7255 13.7915ZM71.8704 10.9262C72.7426 10.4773 73.6232 10.0422 74.5117 9.62121L73.6554 7.81381C72.747 8.24419 71.8468 8.68901 70.9551 9.14797L71.8704 10.9262ZM77.1935 8.4042C78.0925 8.01392 78.9991 7.63789 79.9131 7.2764L79.1775 5.41659C78.2431 5.78617 77.3162 6.17061 76.3971 6.56961L77.1935 8.4042ZM82.6704 6.23808C83.5931 5.90788 84.5227 5.59232 85.4591 5.29168L84.8477 3.38743C83.8903 3.6948 82.9399 4.01743 81.9965 4.35502L82.6704 6.23808ZM88.2763 4.43812C89.219 4.16938 90.168 3.91562 91.1231 3.67713L90.6386 1.73671C89.6621 1.98055 88.6918 2.23998 87.728 2.51474L88.2763 4.43812ZM93.9914 3.01087C94.9484 2.80514 95.9109 2.61462 96.8789 2.43958L96.523 0.4715C95.5335 0.650443 94.5494 0.845216 93.5711 1.05555L93.9914 3.01087ZM99.788 1.96276C100.756 1.82036 101.729 1.69337 102.707 1.58205L102.481 -0.405114C101.481 -0.291326 100.487 -0.161517 99.4969 -0.0159494L99.788 1.96276ZM105.637 1.29679C106.614 1.21769 107.596 1.1542 108.581 1.10655L108.485 -0.891115C107.477 -0.842426 106.474 -0.777534 105.476 -0.696692L105.637 1.29679ZM111.521 1.0119C112.013 1.00398 112.506 1 113 1V-1C112.495 -1 111.992 -0.995937 111.489 -0.987841L111.521 1.0119ZM113 1C113.494 1 113.987 1.00398 114.479 1.0119L114.511 -0.98784C114.008 -0.995936 113.504 -1 113 -1V1ZM117.419 1.10656C118.404 1.1542 119.386 1.21769 120.363 1.29679L120.524 -0.696688C119.526 -0.77753 118.522 -0.842422 117.515 -0.891112L117.419 1.10656ZM123.293 1.58206C124.271 1.69338 125.244 1.82037 126.212 1.96277L126.503 -0.0159414C125.513 -0.161509 124.519 -0.291319 123.519 -0.405107L123.293 1.58206ZM129.121 2.43959C130.089 2.61463 131.051 2.80515 132.008 3.01088L132.429 1.05556C131.45 0.845229 130.466 0.650455 129.477 0.471511L129.121 2.43959ZM134.877 3.67714C135.832 3.91564 136.781 4.16939 137.724 4.43813L138.272 2.51476C137.308 2.24 136.338 1.98056 135.361 1.73673L134.877 3.67714ZM140.541 5.2917C141.477 5.59233 142.407 5.90789 143.329 6.23809L144.003 4.35504C143.06 4.01744 142.109 3.69482 141.152 3.38744L140.541 5.2917ZM146.087 7.27642C147.001 7.63791 147.907 8.01394 148.806 8.40421L149.603 6.56963C148.684 6.17062 147.757 5.78619 146.822 5.41661L146.087 7.27642ZM151.488 9.62123C152.377 10.0422 153.257 10.4773 154.129 10.9263L155.045 9.14799C154.153 8.68903 153.253 8.24421 152.344 7.81383L151.488 9.62123ZM156.725 12.3166C157.584 12.7947 158.433 13.2864 159.274 13.7915L160.304 12.077C159.445 11.5607 158.576 11.0581 157.698 10.5693L156.725 12.3166ZM161.775 15.3496C162.6 15.8827 163.416 16.4289 164.222 16.988L165.362 15.3445C164.537 14.773 163.703 14.2146 162.86 13.6697L161.775 15.3496ZM166.615 18.7055C167.403 19.2914 168.182 19.8898 168.95 20.5006L170.195 18.9348C169.409 18.3105 168.613 17.6988 167.807 17.1L166.615 18.7055ZM171.226 22.3704C171.975 23.0061 172.713 23.6539 173.44 24.3133L174.784 22.8318C174.04 22.1578 173.286 21.4957 172.521 20.846L171.226 22.3704ZM175.59 26.3275C176.295 27.0104 176.99 27.7048 177.672 28.4103L179.109 27.0192C178.411 26.2982 177.702 25.5885 176.981 24.8904L175.59 26.3275ZM179.687 30.5599C180.346 31.2871 180.994 32.0251 181.629 32.7736L183.154 31.479C182.504 30.7139 181.842 29.9596 181.168 29.2163L179.687 30.5599ZM183.499 35.0494C184.11 35.818 184.709 36.5967 185.294 37.3854L186.9 36.1927C186.301 35.3866 185.689 34.5906 185.065 33.8051L183.499 35.0494ZM187.012 39.7779C187.571 40.5842 188.117 41.4001 188.65 42.2252L190.33 41.1399C189.785 40.2964 189.227 39.4625 188.655 38.6383L187.012 39.7779ZM190.208 44.7256C190.713 45.5665 191.205 46.4163 191.683 47.2747L193.431 46.3016C192.942 45.4241 192.439 44.5554 191.923 43.6958L190.208 44.7256ZM193.074 49.8705C193.523 50.7428 193.958 51.6233 194.379 52.5118L196.186 51.6555C195.756 50.7471 195.311 49.8469 194.852 48.9552L193.074 49.8705ZM195.596 55.1936C195.986 56.0926 196.362 56.9992 196.723 57.9132L198.583 57.1776C198.214 56.2432 197.829 55.3163 197.43 54.3972L195.596 55.1936ZM197.762 60.6705C198.092 61.5932 198.408 62.5229 198.708 63.4592L200.612 62.8478C200.305 61.8905 199.982 60.94 199.645 59.9966L197.762 60.6705ZM199.562 66.2764C199.83 67.2191 200.084 68.1682 200.323 69.1232L202.263 68.6387C202.019 67.6622 201.76 66.6919 201.485 65.7281L199.562 66.2764ZM200.989 71.9916C201.195 72.9485 201.385 73.9111 201.56 74.879L203.528 74.5232C203.349 73.5336 203.155 72.5495 202.944 71.5712L200.989 71.9916ZM202.037 77.7881C202.18 78.7562 202.307 79.7293 202.418 80.7072L204.405 80.4809C204.291 79.4814 204.161 78.4867 204.016 77.4971L202.037 77.7881ZM202.703 83.6372C202.782 84.6142 202.846 85.5957 202.893 86.5813L204.891 86.4848C204.842 85.4775 204.777 84.4744 204.697 83.4758L202.703 83.6372ZM202.988 89.5213C202.996 90.0132 203 90.5061 203 91H205C205 90.4954 204.996 89.9918 204.988 89.4891L202.988 89.5213ZM204 90H203.75V92H204V90ZM203.25 90H203V92H203.25V90Z" fill="#0D46FF" mask="url(#path-4-inside-1_55_19)"/>
</g>
<path fill-rule="evenodd" clip-rule="evenodd" d="M201.041 102C201.673 97.7578 202 93.4169 202 89C202 40.3989 162.377 1 113.5 1C64.6228 1 25 40.3989 25 89C25 93.4169 25.3273 97.7578 25.959 102H201.041Z" fill="url(#paint0_linear_55_19)"/>
<defs>
<linearGradient id="paint0_linear_55_19" x1="207.979" y1="63.32" x2="189.562" y2="144.099" gradientUnits="userSpaceOnUse">
<stop stop-color="#5D83FF" stop-opacity="0.1"/>
<stop offset="1" stop-color="#5D83FF" stop-opacity="0"/>
</linearGradient>
</defs>
</svg>
