<svg viewBox="0 0 512 512" xmlns="http://www.w3.org/2000/svg"><path d="M276.6 127.6a148.4 148.4 0 0 0-114.46 242.86A148.49 148.49 0 0 0 326.47 387a150.66 150.66 0 0 1-15.94-16.51 148.38 148.38 0 0 1 9.79-236.29 148.18 148.18 0 0 0-43.72-6.6Z" fill="#9e9e9e" class="fill-fff133"></path><path d="M116.5 207a118 118 0 0 0-1.07 3.17M109.77 234.43a148.43 148.43 0 0 0 221 150.11 148.44 148.44 0 0 1 0-257.08 148.46 148.46 0 0 0-204 56.62" fill="none" stroke="#02005c" stroke-linecap="round" stroke-linejoin="round" stroke-width="20" class="stroke-02005c"></path></svg>